HIERARCHY
ROOT Root
{
  OFFSET 0.0 0.0 0.0
  CHANNELS 6 Xposition Yposition Zposition Zrotation Yrotation Xrotation
  JOINT Hips
  {
    OFFSET 0.0 100.0 0.0
    CHANNELS 6 Xposition Yposition Zposition Zrotation Yrotation Xrotation
    JOINT Spine1
    {
      OFFSET 5.003913 -0.037094 -0.013727
      CHANNELS 3 Zrotation Yrotation Xrotation
      JOINT Spine2
      {
        OFFSET 7.125363 -1e-06 0.0
        CHANNELS 3 Zrotation Yrotation Xrotation
        JOINT Chest
        {
          OFFSET 7.594027 1e-06 0.0
          CHANNELS 3 Zrotation Yrotation Xrotation
          JOINT Neck1
          {
            OFFSET 26.313086 -0.460272 -0.181672
            CHANNELS 3 Zrotation Yrotation Xrotation
            JOINT Neck2
            {
              OFFSET 8.045911 0.0 0.0
              CHANNELS 3 Zrotation Yrotation Xrotation
              JOINT Head
              {
                OFFSET 6.432774 0.0 0.0
                CHANNELS 3 Zrotation Yrotation Xrotation
                JOINT HeadEnd
                {
                  OFFSET 16.169773 0.06451 0.00362
                  CHANNELS 3 Zrotation Yrotation Xrotation
                }
                JOINT Jaw
                {
                  OFFSET 0.108741 3.12938 0.002639
                  CHANNELS 3 Zrotation Yrotation Xrotation
                }
                JOINT LeftEye
                {
                  OFFSET 4.45173 8.166359 3.206392
                  CHANNELS 3 Zrotation Yrotation Xrotation
                }
                JOINT RightEye
                {
                  OFFSET 4.436895 8.135758 -3.222429
                  CHANNELS 3 Zrotation Yrotation Xrotation
                }
              }
            }
          }
          JOINT LeftShoulder
          {
            OFFSET 23.218927 5.195579 1.621656
            CHANNELS 3 Zrotation Yrotation Xrotation
            JOINT LeftArm
            {
              OFFSET 15.902118 2e-06 -2e-06
              CHANNELS 3 Zrotation Yrotation Xrotation
              JOINT LeftForeArm
              {
                OFFSET 28.739307 0.0 -1e-06
                CHANNELS 3 Zrotation Yrotation Xrotation
                JOINT LeftHand
                {
                  OFFSET 27.093981 -4e-06 0.0
                  CHANNELS 3 Zrotation Yrotation Xrotation
                  JOINT LeftHandThumb1
                  {
                    OFFSET 2.276781 3.380274 0.83384
                    CHANNELS 3 Zrotation Yrotation Xrotation
                    JOINT LeftHandThumb2
                    {
                      OFFSET 4.705309 -1e-06 -1e-06
                      CHANNELS 3 Zrotation Yrotation Xrotation
                      JOINT LeftHandThumb3
                      {
                        OFFSET 2.798515 0.0 3e-06
                        CHANNELS 3 Zrotation Yrotation Xrotation
                        JOINT LeftHandThumbEnd
                        {
                          OFFSET 3.180793 4e-06 -4e-06
                          CHANNELS 3 Zrotation Yrotation Xrotation
                        }
                      }
                    }
                  }
                  JOINT LeftHandIndex1
                  {
                    OFFSET 3.247786 2.352677 0.137192
                    CHANNELS 3 Zrotation Yrotation Xrotation
                    JOINT LeftHandIndex2
                    {
                      OFFSET 6.367095 1e-06 0.0
                      CHANNELS 3 Zrotation Yrotation Xrotation
                      JOINT LeftHandIndex3
                      {
                        OFFSET 3.662364 0.0 0.0
                        CHANNELS 3 Zrotation Yrotation Xrotation
                        JOINT LeftHandIndex4
                        {
                          OFFSET 2.329242 4e-06 -4e-06
                          CHANNELS 3 Zrotation Yrotation Xrotation
                          JOINT LeftHandIndexEnd
                          {
                            OFFSET 2.767823 1e-06 0.0
                            CHANNELS 3 Zrotation Yrotation Xrotation
                          }
                        }
                      }
                    }
                  }
                  JOINT LeftHandMiddle1
                  {
                    OFFSET 3.163612 0.945023 -0.406112
                    CHANNELS 3 Zrotation Yrotation Xrotation
                    JOINT LeftHandMiddle2
                    {
                      OFFSET 6.276789 3e-06 0.0
                      CHANNELS 3 Zrotation Yrotation Xrotation
                      JOINT LeftHandMiddle3
                      {
                        OFFSET 4.35652 -1e-06 4e-06
                        CHANNELS 3 Zrotation Yrotation Xrotation
                        JOINT LeftHandMiddle4
                        {
                          OFFSET 2.996877 0.0 8e-06
                          CHANNELS 3 Zrotation Yrotation Xrotation
                          JOINT LeftHandMiddleEnd
                          {
                            OFFSET 2.323256 3e-06 -4e-06
                            CHANNELS 3 Zrotation Yrotation Xrotation
                          }
                        }
                      }
                    }
                  }
                  JOINT LeftHandRing1
                  {
                    OFFSET 2.882606 -0.309162 0.107445
                    CHANNELS 3 Zrotation Yrotation Xrotation
                    JOINT LeftHandRing2
                    {
                      OFFSET 6.033198 0.0 4e-06
                      CHANNELS 3 Zrotation Yrotation Xrotation
                      JOINT LeftHandRing3
                      {
                        OFFSET 4.350578 3e-06 0.0
                        CHANNELS 3 Zrotation Yrotation Xrotation
                        JOINT LeftHandRing4
                        {
                          OFFSET 2.651321 2e-06 -7e-06
                          CHANNELS 3 Zrotation Yrotation Xrotation
                          JOINT LeftHandRingEnd
                          {
                            OFFSET 1.937663 1e-06 -4e-06
                            CHANNELS 3 Zrotation Yrotation Xrotation
                          }
                        }
                      }
                    }
                  }
                  JOINT LeftHandPinky1
                  {
                    OFFSET 2.865315 -1.525436 0.575687
                    CHANNELS 3 Zrotation Yrotation Xrotation
                    JOINT LeftHandPinky2
                    {
                      OFFSET 5.54936 1e-06 -8e-06
                      CHANNELS 3 Zrotation Yrotation Xrotation
                      JOINT LeftHandPinky3
                      {
                        OFFSET 3.070974 0.0 -4e-06
                        CHANNELS 3 Zrotation Yrotation Xrotation
                        JOINT LeftHandPinky4
                        {
                          OFFSET 1.549672 1e-06 0.0
                          CHANNELS 3 Zrotation Yrotation Xrotation
                          JOINT LeftHandPinkyEnd
                          {
                            OFFSET 1.952123 0.0 0.0
                            CHANNELS 3 Zrotation Yrotation Xrotation
                          }
                        }
                      }
                    }
                  }
                }
              }
            }
          }
          JOINT RightShoulder
          {
            OFFSET 23.161716 5.296122 -1.380114
            CHANNELS 3 Zrotation Yrotation Xrotation
            JOINT RightArm
            {
              OFFSET -16.027195 -2e-06 1.1e-05
              CHANNELS 3 Zrotation Yrotation Xrotation
              JOINT RightForeArm
              {
                OFFSET -28.736639 4e-06 2e-06
                CHANNELS 3 Zrotation Yrotation Xrotation
                JOINT RightHand
                {
                  OFFSET -27.133619 6e-06 0.0
                  CHANNELS 3 Zrotation Yrotation Xrotation
                  JOINT RightHandThumb1
                  {
                    OFFSET -2.274328 -3.351035 -0.83067
                    CHANNELS 3 Zrotation Yrotation Xrotation
                    JOINT RightHandThumb2
                    {
                      OFFSET -4.703594 -3e-06 2e-06
                      CHANNELS 3 Zrotation Yrotation Xrotation
                      JOINT RightHandThumb3
                      {
                        OFFSET -2.794935 -4e-06 -3e-06
                        CHANNELS 3 Zrotation Yrotation Xrotation
                        JOINT RightHandThumbEnd
                        {
                          OFFSET -3.183852 4e-06 1e-06
                          CHANNELS 3 Zrotation Yrotation Xrotation
                        }
                      }
                    }
                  }
                  JOINT RightHandIndex1
                  {
                    OFFSET -3.253496 -2.33755 -0.127667
                    CHANNELS 3 Zrotation Yrotation Xrotation
                    JOINT RightHandIndex2
                    {
                      OFFSET -6.344434 0.0 0.0
                      CHANNELS 3 Zrotation Yrotation Xrotation
                      JOINT RightHandIndex3
                      {
                        OFFSET -3.654871 0.0 -8e-06
                        CHANNELS 3 Zrotation Yrotation Xrotation
                        JOINT RightHandIndex4
                        {
                          OFFSET -2.327586 -1e-06 0.0
                          CHANNELS 3 Zrotation Yrotation Xrotation
                          JOINT RightHandIndexEnd
                          {
                            OFFSET -2.770001 3e-06 8e-06
                            CHANNELS 3 Zrotation Yrotation Xrotation
                          }
                        }
                      }
                    }
                  }
                  JOINT RightHandMiddle1
                  {
                    OFFSET -3.168223 -0.944764 0.411762
                    CHANNELS 3 Zrotation Yrotation Xrotation
                    JOINT RightHandMiddle2
                    {
                      OFFSET -6.266691 -1e-06 -4e-06
                      CHANNELS 3 Zrotation Yrotation Xrotation
                      JOINT RightHandMiddle3
                      {
                        OFFSET -4.348901 0.0 0.0
                        CHANNELS 3 Zrotation Yrotation Xrotation
                        JOINT RightHandMiddle4
                        {
                          OFFSET -3.00024 2e-06 -4e-06
                          CHANNELS 3 Zrotation Yrotation Xrotation
                          JOINT RightHandMiddleEnd
                          {
                            OFFSET -2.321477 -4e-06 -4e-06
                            CHANNELS 3 Zrotation Yrotation Xrotation
                          }
                        }
                      }
                    }
                  }
                  JOINT RightHandRing1
                  {
                    OFFSET -2.885654 0.293261 -0.119232
                    CHANNELS 3 Zrotation Yrotation Xrotation
                    JOINT RightHandRing2
                    {
                      OFFSET -6.032835 -1e-06 -4e-06
                      CHANNELS 3 Zrotation Yrotation Xrotation
                      JOINT RightHandRing3
                      {
                        OFFSET -4.33881 0.0 -4e-06
                        CHANNELS 3 Zrotation Yrotation Xrotation
                        JOINT RightHandRing4
                        {
                          OFFSET -2.654903 -4e-06 -4e-06
                          CHANNELS 3 Zrotation Yrotation Xrotation
                          JOINT RightHandRingEnd
                          {
                            OFFSET -1.935122 0.0 4e-06
                            CHANNELS 3 Zrotation Yrotation Xrotation
                          }
                        }
                      }
                    }
                  }
                  JOINT RightHandPinky1
                  {
                    OFFSET -2.866241 1.503904 -0.60527
                    CHANNELS 3 Zrotation Yrotation Xrotation
                    JOINT RightHandPinky2
                    {
                      OFFSET -5.553177 -2e-06 0.0
                      CHANNELS 3 Zrotation Yrotation Xrotation
                      JOINT RightHandPinky3
                      {
                        OFFSET -3.062664 -1e-06 -4e-06
                        CHANNELS 3 Zrotation Yrotation Xrotation
                        JOINT RightHandPinky4
                        {
                          OFFSET -1.546529 2e-06 4e-06
                          CHANNELS 3 Zrotation Yrotation Xrotation
                          JOINT RightHandPinkyEnd
                          {
                            OFFSET -1.952341 0.0 -4e-06
                            CHANNELS 3 Zrotation Yrotation Xrotation
                          }
                        }
                      }
                    }
                  }
                }
              }
            }
          }
        }
      }
    }
    JOINT LeftLeg
    {
      OFFSET -8.443107 2.567604 10.043214
      CHANNELS 3 Zrotation Yrotation Xrotation
      JOINT LeftShin
      {
        OFFSET 43.229198 1e-06 -1e-06
        CHANNELS 3 Zrotation Yrotation Xrotation
        JOINT LeftFoot
        {
          OFFSET 42.298611 1e-06 1e-06
          CHANNELS 3 Zrotation Yrotation Xrotation
          JOINT LeftToeBase
          {
            OFFSET 14.165858 1e-06 0.0
            CHANNELS 3 Zrotation Yrotation Xrotation
            JOINT LeftToeEnd
            {
              OFFSET 6.7141 -0.234461 0.0
              CHANNELS 3 Zrotation Yrotation Xrotation
            }
          }
        }
      }
    }
    JOINT RightLeg
    {
      OFFSET -8.303923 2.592729 -10.047278
      CHANNELS 3 Zrotation Yrotation Xrotation
      JOINT RightShin
      {
        OFFSET -43.369682 0.0 1e-06
        CHANNELS 3 Zrotation Yrotation Xrotation
        JOINT RightFoot
        {
          OFFSET -42.260784 4e-06 2e-06
          CHANNELS 3 Zrotation Yrotation Xrotation
          JOINT RightToeBase
          {
            OFFSET -14.222245 -2e-06 -1e-06
            CHANNELS 3 Zrotation Yrotation Xrotation
            JOINT RightToeEnd
            {
              OFFSET -6.660062 0.232574 -2e-06
              CHANNELS 3 Zrotation Yrotation Xrotation
            }
          }
        }
      }
    }
  }
}
MOTION
Frames: 4
Frame Time: 0.03333333333333333
0.0 0.0 0.0 0.0 -0.0 0.0 0.276684 99.731155 -4.117906 91.137222 4.746302 90.010925 -2.73303 0.224564 -0.19148 -11.780791 -0.541425 -0.028031 19.618093 -0.9817 -2.357851 15.260024 0.851509 2.410764 -2.641894 -0.622173 -1.066563 -30.421099 0.022158 -2.05642 6e-06 0.0 0.0 -0.013017 0.009502 -0.014004 0.043024 0.043368 -0.003931 0.050437 -0.026699 -0.019913 -119.234383 -72.678925 132.69812 38.181068 -57.831467 4.448944 30.87075 0.198757 0.178943 0.780859 0.90225 -10.083252 17.636627 -26.322729 52.411186 -19.46666 -14.395596 29.410393 -1e-06 -8.774821 -2e-06 15.802817 -17.828402 6.22257 -0.609776 -1.795653 -3.889327 -4.80709 -11.046811 -2.93785 5e-06 -20.976019 -0.0 -5.019969 -25.03356 -4.031882 6e-06 2e-06 0.0 -10.634533 -5.68697 -3.565588 10.573271 -17.922949 -3.113903 2e-06 -13.821206 2e-06 -0.501776 -31.181505 -4.027017 -11.260314 -59.331566 6.971306 -13.982712 -7.150198 -2.875042 13.772727 -8.401493 -3.218243 0.347736 -34.211555 0.771651 -0.963029 -17.73337 2.621019 1e-06 -1e-06 -1e-06 -17.346416 -20.095217 -4.201784 21.757555 -1.638375 3.866429 1e-06 -6.338824 -0.0 -1.69759 -22.591742 -6.194005 -0.0 -3e-06 -3e-06 59.70459 -77.499359 133.83606 36.839848 -64.139763 -9.385634 28.593119 0.15659 0.134199 5.395321 -5.233062 -8.397077 22.18211 -20.375895 49.933319 -16.701809 -16.74353 28.476528 -3e-06 -12.690601 -1e-06 16.500595 -17.821394 2.84374 -0.105919 -1.513855 -4.275881 -5.039042 -5.612871 -2.953556 3e-06 -11.020525 -1e-06 -6.111295 -15.89533 -3.840471 0.0 0.0 -0.0 -10.28337 -5.680287 -4.341838 11.028293 -11.302402 -2.372632 -1.38427 -14.238577 -6.32012 -0.625437 -26.924187 -3.827599 -4.300904 -50.490631 -3.377801 -13.708525 -7.363474 -3.720939 18.141146 -14.052736 -3.242674 9e-06 -18.78727 -2e-06 -0.429713 -8.456039 2.555503 1e-06 -0.0 1e-06 -15.923532 -20.094479 -5.473586 30.419207 -7.190824 1.735926 2e-06 -8.162924 -1e-06 -1.861903 -22.861467 -6.167942 -0.0 -5e-06 -2e-06 -175.869614 -2.079943 -1.899181 11.046903 -0.019645 -0.108235 -79.43631 -2.199166 -4.492135 -5.258105 1.546414 2.107205 -0.999999 0.0 0.0 1.388809 -5.147237 -2.900818 15.952366 0.053321 0.069532 -80.932137 -5.470613 -6.933798 -4.463576 0.717532 1.715145 -1.000002 0.0 -0.0 
0.0 0.0 0.0 0.0 -0.0 0.0 0.33922 99.762985 -4.032909 91.154594 4.811275 90.149635 -2.705818 0.203062 -0.213287 -11.73913 -0.512912 -0.038557 19.508829 -1.014363 -2.385728 15.352462 0.915154 2.454145 -2.631545 -0.577805 -1.149094 -30.507477 -0.118309 -2.094985 5e-06 -0.0 1e-06 -0.020255 0.013376 0.011367 0.065016 0.045998 0.025915 0.072954 -0.021557 0.000611 -118.946571 -72.842087 132.24588 38.766376 -56.787388 1.743924 33.407478 0.169392 0.07326 1.504645 1.380631 -11.241105 17.636625 -26.322729 52.411194 -19.466658 -14.395597 29.410381 -1e-06 -8.77482 -2e-06 15.801333 -17.938133 6.208459 -0.609777 -1.795653 -3.889327 -4.80709 -11.046809 -2.937848 4e-06 -20.976015 0.0 -5.019971 -25.033552 -4.031881 7e-06 -3e-06 -0.0 -10.634535 -5.686969 -3.565587 10.573272 -17.922947 -3.113898 1e-06 -13.821205 -1e-06 -0.501777 -31.181498 -4.027015 -11.353446 -59.290833 6.999671 -13.982713 -7.150196 -2.875041 13.77273 -8.401491 -3.218241 0.34773 -34.211544 0.771653 -0.963029 -17.73337 2.621023 -0.0 1e-06 1e-06 -17.346416 -20.095215 -4.20178 21.757557 -1.638374 3.866428 -0.0 -6.338822 1e-06 -1.69759 -22.591745 -6.194007 1e-06 -5e-06 -1e-06 59.44688 -77.648842 134.131638 36.635509 -63.160339 -12.089062 30.346302 0.25229 0.09844 5.107417 -5.160848 -11.049819 22.182112 -20.375898 49.933319 -16.701811 -16.743532 28.476532 -1e-06 -12.6906 -0.0 16.597313 -17.924658 2.872983 -0.105922 -1.513856 -4.275882 -5.039038 -5.612871 -2.953557 5e-06 -11.020523 -1e-06 -6.111298 -15.89533 -3.840469 -0.0 -2e-06 -0.0 -10.283371 -5.680287 -4.341839 11.028295 -11.302403 -2.372632 -1.38427 -14.238576 -6.32012 -0.625439 -26.924185 -3.827599 -4.268017 -50.771873 -3.395142 -13.708526 -7.363475 -3.720939 18.141148 -14.052735 -3.242673 8e-06 -18.78727 -3e-06 -0.429713 -8.456043 2.555504 -0.0 0.0 -0.0 -15.923534 -20.094479 -5.473585 30.41921 -7.190826 1.735925 1e-06 -8.162925 -1e-06 -1.861901 -22.861467 -6.167942 -1e-06 -2e-06 -2e-06 -175.425583 -2.038284 -1.967617 10.39605 -0.015575 -0.057536 -79.194405 -2.038601 -4.455622 -5.292511 1.586326 2.124664 -0.999999 0.0 0.0 1.778951 -5.19403 -3.05533 15.477489 0.053138 0.071425 -80.763725 -5.449271 -6.962963 -4.507871 0.709745 1.720476 -1.000002 0.0 0.0 
0.0 0.0 0.0 0.0 -0.0 0.0 0.407151 99.765442 -3.984507 91.193329 4.863786 90.400932 -2.745252 0.1611 -0.226861 -11.724372 -0.507481 -0.048269 19.459782 -1.021237 -2.400807 15.473811 0.98803 2.504142 -2.654712 -0.553277 -1.221683 -30.282999 -0.306205 -2.149504 5e-06 0.0 0.0 -0.023195 0.016642 0.017934 0.057961 0.043988 0.035418 0.070104 -0.013354 0.004196 -118.757607 -73.139786 131.898926 39.363708 -55.33065 -1.495289 36.153065 0.099567 -0.032867 2.181255 1.757612 -13.03016 17.636625 -26.322735 52.411194 -19.466661 -14.395596 29.410389 -1e-06 -8.774819 -1e-06 15.785093 -18.094477 6.258603 -0.609777 -1.795654 -3.889328 -4.807086 -11.046811 -2.93785 2e-06 -20.976019 3e-06 -5.019969 -25.03356 -4.031878 6e-06 -1e-06 -0.0 -10.634532 -5.686971 -3.565588 10.573271 -17.922951 -3.113902 2e-06 -13.821208 0.0 -0.501778 -31.181498 -4.027014 -11.50309 -59.266243 7.069031 -13.982712 -7.150198 -2.875044 13.772727 -8.401493 -3.218241 0.347732 -34.211555 0.771652 -0.963029 -17.73337 2.62102 0.0 -1e-06 -2e-06 -17.346413 -20.095217 -4.201784 21.757551 -1.638376 3.866426 1e-06 -6.338826 1e-06 -1.697586 -22.591742 -6.194008 1e-06 -7e-06 -2e-06 58.677494 -77.764267 134.907104 35.98811 -61.945091 -15.396592 32.40028 0.292781 0.099489 4.648644 -4.306541 -15.28188 22.182117 -20.375898 49.933327 -16.701818 -16.74353 28.476536 -3e-06 -12.690601 -1e-06 16.557068 -18.069431 2.964155 -0.105917 -1.513856 -4.275882 -5.03904 -5.612871 -2.953557 4e-06 -11.020523 -1e-06 -6.111296 -15.895336 -3.84047 0.0 1e-06 -0.0 -10.283368 -5.680288 -4.341839 11.028296 -11.302406 -2.372633 -1.384268 -14.238585 -6.320121 -0.625437 -26.924191 -3.827601 -4.220928 -50.951111 -3.449725 -13.708527 -7.363476 -3.72094 18.141148 -14.052739 -3.242674 1e-05 -18.787268 -3e-06 -0.429712 -8.456041 2.555505 -2e-06 0.0 -0.0 -15.923532 -20.094484 -5.473586 30.41921 -7.190827 1.735927 2e-06 -8.162926 -2e-06 -1.861901 -22.861469 -6.167945 1e-06 -0.0 1e-06 -175.333603 -1.988652 -2.001326 10.317312 -0.022859 -0.022413 -79.167213 -1.804561 -4.328192 -5.289783 1.604731 2.137078 -0.999999 0.0 0.0 2.001893 -5.274133 -3.246594 15.314457 0.065926 0.082962 -80.745277 -5.441336 -7.053627 -4.519796 0.71862 1.725593 -1.000002 0.0 0.0 
0.0 0.0 0.0 0.0 -0.0 0.0 0.439724 99.755966 -3.94003 91.24662 4.915429 90.699165 -2.810543 0.109939 -0.238839 -11.745489 -0.502069 -0.04521 19.470692 -1.015355 -2.405791 15.634761 1.018277 2.529871 -2.676872 -0.556391 -1.21356 -29.957829 -0.460151 -2.177158 7e-06 -0.0 0.0 -0.02747 0.016299 0.009403 0.043125 0.038629 0.029689 0.061713 -0.009293 -0.007003 -118.54834 -73.485786 131.550125 40.109623 -53.54929 -5.269324 38.77317 -0.027711 -0.087374 2.762489 2.155453 -15.269303 17.636625 -26.322725 52.411194 -19.46666 -14.395596 29.410385 -2e-06 -8.774822 -1e-06 15.810846 -18.186445 6.317743 -0.609776 -1.795653 -3.889327 -4.807086 -11.046809 -2.93785 3e-06 -20.976015 -1e-06 -5.019967 -25.033556 -4.03188 5e-06 3e-06 -1e-06 -10.634535 -5.68697 -3.565588 10.573272 -17.922947 -3.113899 2e-06 -13.821203 1e-06 -0.501777 -31.181498 -4.027017 -11.607186 -59.278412 7.171738 -13.982713 -7.150197 -2.875042 13.772729 -8.401489 -3.218241 0.347735 -34.211544 0.771654 -0.963028 -17.733366 2.621018 0.0 -0.0 -2e-06 -17.346415 -20.095215 -4.201783 21.757557 -1.638375 3.866428 0.0 -6.338822 1e-06 -1.697587 -22.591738 -6.194005 0.0 -5e-06 -2e-06 57.577499 -77.85714 136.024994 35.101761 -60.524109 -19.159319 34.801765 0.272252 0.170491 4.032424 -2.669828 -20.368935 22.182121 -20.375891 49.933315 -16.701817 -16.74353 28.47653 -3e-06 -12.690601 -1e-06 16.336641 -18.155687 3.047208 -0.105918 -1.513857 -4.275882 -5.039041 -5.612871 -2.953556 1e-06 -11.020523 -2e-06 -6.111295 -15.89533 -3.840471 1e-06 0.0 1e-06 -10.283369 -5.680287 -4.341838 11.028296 -11.302403 -2.372633 -1.384272 -14.23858 -6.32012 -0.625437 -26.924187 -3.827601 -4.165074 -50.928253 -3.493857 -13.708523 -7.363475 -3.720939 18.141148 -14.052739 -3.242675 9e-06 -18.78727 -1e-06 -0.429711 -8.456041 2.555507 -0.0 1e-06 0.0 -15.923534 -20.094482 -5.473584 30.41921 -7.190827 1.735925 3e-06 -8.162922 1e-06 -1.861902 -22.861469 -6.167942 -0.0 -1e-06 0.0 -175.331894 -1.946817 -1.982967 10.388556 -0.031423 0.003692 -79.200645 -1.585361 -4.228112 -5.292654 1.606447 2.143176 -0.999998 -0.0 0.0 2.157444 -5.342066 -3.445325 15.302582 0.072576 0.093726 -80.809105 -5.465103 -7.137641 -4.573045 0.72501 1.724606 -1.000002 -0.0 0.0 
